# xmcd
#
# Track frame offsets:
#	150
#	19152
#	38167
#	59345
#
# Disc length: 1073 seconds
#
# Revision: 1
# Processed by: cddbd v1.5PL3 Copyright (c) Steve Scherf et al.
# Submitted via: CDex 1.50Beta5
#
DISCID=2c042f04
DTITLE=中山美穂 - Best Coupling 6
DYEAR=1900
DGENRE=Pop
TTITLE0=Catch Me
TTITLE1=Catch Me Original Karaoke
TTITLE2=You're My Only Shinin' Star
TTITLE3=You're My Only Shinin' Star Original Karaoke
EXTD=
EXTT0=
EXTT1=
EXTT2=
EXTT3=
PLAYORDER=
